<svg xmlns:xlink="http://www.w3.org/1999/xlink" width="56" height="56" viewBox="0 0 56 56" fill="none" xmlns="http://www.w3.org/2000/svg">
<circle cx="27.637" cy="27.7629" r="27.637" fill="black"/>
<path d="M35.657 27.2574V36.9455C35.657 37.2665 35.5262 37.5428 35.2676 37.776L32.3657 40.7048C32.1326 40.9383 31.8455 41.0545 31.4959 41.0545H24.632C24.2824 41.0545 23.9925 40.9478 23.7623 40.7329L20.8604 37.8047C20.6188 37.5712 20.4994 37.2929 20.4994 36.9714V27.2574H16.5146V37.5132C16.5146 38.5339 16.8614 39.3933 17.5549 40.0924L21.1475 43.7209C21.8694 44.4199 22.7192 44.7699 23.6998 44.7699H32.4282C33.4088 44.7699 34.2586 44.4105 34.9805 43.6919L38.5731 40.064C39.2865 39.3669 39.6417 38.5095 39.6417 37.492V27.2574H35.657Z" fill="white"/>
<path d="M32.4258 21.8453H40.5488V17.8867C40.5488 16.8784 40.114 15.9102 39.338 15.2768C37.3798 13.6808 34.2334 12.1722 32.4258 12.1171V21.8453Z" fill="#EFC41A"/>
<path d="M31.1648 10.7554H28.6495V14.4994H27.3904V10.7554H24.875V21.8453H31.1648V10.7554Z" fill="#EFC41A"/>
<path d="M41.7147 23.1217H40.5493V23.1177H15.6317C15.6317 23.1191 15.6317 23.1203 15.6317 23.1217H14.4436C13.9548 23.1217 13.6904 23.4298 13.6904 24.0018V26.3781C13.6904 26.9501 13.9548 27.2579 14.4436 27.2579H41.7147C42.2035 27.2579 42.4678 26.9501 42.4678 26.3781V24.0018C42.4678 23.4298 42.2035 23.1217 41.7147 23.1217Z" fill="#EFC41A"/>
<path d="M23.6169 21.8453V12.1154C21.8462 12.1544 19.3308 13.5468 17.3668 15.0852C16.355 15.879 15.7468 16.5927 15.724 17.8867C15.6985 19.2579 15.6587 20.4724 15.6416 21.8453H23.6169Z" fill="#EFC41A"/>
</svg>