<svg width="20" height="20" viewBox="0 0 20 20" fill="none" xmlns="http://www.w3.org/2000/svg">
<path d="M9.99967 9.16666C10.9201 9.16666 11.6663 8.42047 11.6663 7.49999C11.6663 6.57952 10.9201 5.83333 9.99967 5.83333C9.0792 5.83333 8.33301 6.57952 8.33301 7.49999C8.33301 8.42047 9.0792 9.16666 9.99967 9.16666Z" stroke="#14181F" stroke-width="1.5" stroke-linecap="round" stroke-linejoin="round"/>
<path d="M10.0003 17.5C10.0003 17.5 15.8337 13.4615 15.8337 8.26923C15.8337 6.73914 15.2191 5.27171 14.1251 4.18977C13.0312 3.10783 11.5474 2.5 10.0003 2.5C8.45323 2.5 6.9695 3.10783 5.87554 4.18977C4.78157 5.27171 4.16699 6.73914 4.16699 8.26923C4.16699 13.4615 10.0003 17.5 10.0003 17.5Z" stroke="#14181F" stroke-width="1.5" stroke-linecap="round" stroke-linejoin="round"/>
</svg>
