<svg width="273" height="272" viewBox="0 0 273 272" fill="none" xmlns="http://www.w3.org/2000/svg">
<mask id="mask0_1079_33699" style="mask-type:luminance" maskUnits="userSpaceOnUse" x="0" y="0" width="273" height="272">
<path d="M272.5 0H0.5V272H272.5V0Z" fill="white"/>
</mask>
<g mask="url(#mask0_1079_33699)">
<path d="M236.305 189.596C236.305 200.715 234.488 211.413 231.134 221.403H41.6453C38.2916 211.413 36.4746 200.715 36.4746 189.596C36.4746 154.579 54.4892 123.766 81.7544 105.926C97.4543 95.6528 116.222 89.6797 136.388 89.6797C158.624 89.6797 179.166 96.9445 195.766 109.231C220.36 127.427 236.305 156.649 236.305 189.596Z" fill="#4BB4FF"/>
<path d="M214.725 189.598C214.725 200.921 212.32 211.684 207.995 221.405H64.782C60.4572 211.684 58.0527 200.921 58.0527 189.598C58.0527 167.585 67.1321 147.691 81.7548 133.46C88.9628 126.442 97.5199 120.801 106.999 116.966C108.555 116.332 110.138 115.75 111.743 115.22C119.492 112.652 127.777 111.262 136.389 111.262C160.129 111.262 181.402 121.821 195.766 138.5C207.582 152.217 214.725 170.074 214.725 189.598Z" fill="#1273B8"/>
<path d="M195.765 221.406H81.7539V89.1836H195.765V221.406Z" fill="white"/>
<path d="M195.765 221.406H81.7539V89.1836H195.765V221.406Z" stroke="#00004E" stroke-width="2.4" stroke-linecap="round" stroke-linejoin="round"/>
<path d="M195.765 101.658H81.7539V89.1836H195.765V101.658Z" fill="#000484"/>
<path d="M93.7282 95.9775H89.7363V83.2539H93.7282V95.9775Z" fill="#000484"/>
<path d="M109.279 96.1416H105.287V83.418H109.279V96.1416Z" fill="#000484"/>
<path d="M124.83 95.3096H120.838V82.5859H124.83V95.3096Z" fill="#000484"/>
<path d="M140.381 95.0244H136.389V82.3008H140.381V95.0244Z" fill="#000484"/>
<path d="M155.931 95.6455H151.939V82.9219H155.931V95.6455Z" fill="#000484"/>
<path d="M171.482 95.8096H167.49V83.0859H171.482V95.8096Z" fill="#000484"/>
<path d="M187.033 94.6924H183.041V81.9688H187.033V94.6924Z" fill="#000484"/>
<path d="M191.525 110.41H87.4922V108.664H191.525V110.41Z" fill="#C1C7CD"/>
<path d="M191.525 202.696H87.4922V200.949H191.525V202.696Z" fill="#C1C7CD"/>
<path d="M127.087 116.738H87.4824V114.992H127.087V116.738Z" fill="#C1C7CD"/>
<path d="M127.096 209.43H87.4922V207.684H127.096V209.43Z" fill="#C1C7CD"/>
<path d="M119.635 146.42C119.091 147.986 118.029 149.255 116.008 149.255C113.987 149.255 113.02 147.974 112.272 146.426C111.817 144.872 113.898 143.578 115.918 143.578C117.939 143.578 120.09 144.854 119.635 146.42Z" fill="#000484"/>
<path d="M160.806 146.402C161.264 147.956 159.002 149.237 156.981 149.237C154.96 149.237 152.767 147.956 153.27 146.395C153.736 144.835 154.934 143.566 156.955 143.566C158.976 143.566 160.656 144.84 160.806 146.402Z" fill="#000484"/>
<path d="M120.383 169.952C123.538 165.336 129.524 162.219 136.39 162.219C143.255 162.219 149.239 165.336 152.394 169.952" stroke="#000484" stroke-width="3.6" stroke-linecap="round" stroke-linejoin="round"/>
<path d="M267.927 221.402H231.134H207.995H195.766H81.7541H64.7813H41.645H4.85156" stroke="#050505" stroke-width="2.4" stroke-linecap="round" stroke-linejoin="round"/>
<path d="M45.9544 118.369C45.9544 120.986 43.8319 123.108 41.2145 123.108C38.5968 123.108 36.4746 120.986 36.4746 118.369C36.4746 115.751 38.5968 113.629 41.2145 113.629C43.8319 113.629 45.9544 115.751 45.9544 118.369Z" stroke="#2B2929" stroke-width="2.4" stroke-miterlimit="10"/>
<path d="M47.9237 183.799C47.9237 185.654 46.4198 187.158 44.5654 187.158C42.7107 187.158 41.207 185.654 41.207 183.799C41.207 181.945 42.7107 180.441 44.5654 180.441C46.4198 180.441 47.9237 181.945 47.9237 183.799Z" fill="#000484"/>
<path d="M253.119 200.948C253.119 202.803 251.615 204.306 249.761 204.306C247.906 204.306 246.402 202.803 246.402 200.948C246.402 199.093 247.906 197.59 249.761 197.59C251.615 197.59 253.119 199.093 253.119 200.948Z" fill="#000484"/>
<path d="M112.273 48.8164V57.3158" stroke="#000484" stroke-width="4.20848" stroke-linecap="round" stroke-linejoin="round"/>
<path d="M116.523 53.0664H108.023" stroke="#000484" stroke-width="4.20848" stroke-linecap="round" stroke-linejoin="round"/>
<path d="M243.404 113.086L249.414 119.096" stroke="#000484" stroke-width="4.20848" stroke-linecap="round" stroke-linejoin="round"/>
<path d="M249.415 113.086L243.404 119.096" stroke="#000484" stroke-width="4.20848" stroke-linecap="round" stroke-linejoin="round"/>
<path d="M111.271 192.384C111.271 203.373 102.363 212.282 91.3747 212.282C80.3859 212.282 71.4785 203.373 71.4785 192.384C71.4785 181.397 80.3859 172.488 91.3747 172.488C102.363 172.488 111.271 181.397 111.271 192.384Z" fill="white"/>
<path d="M91.3885 169.238C78.4974 169.238 68.0469 179.689 68.0469 192.58C68.0469 205.469 78.4974 215.919 91.3885 215.919C94.8145 215.919 98.0676 215.182 100.997 213.856C104.57 212.24 107.661 209.752 110.002 206.661C112.969 202.747 114.728 197.869 114.728 192.58C114.728 179.689 104.278 169.238 91.3885 169.238ZM91.3885 212.856C80.19 212.856 71.1125 203.779 71.1125 192.58C71.1125 181.381 80.19 172.302 91.3885 172.302C102.587 172.302 111.667 181.381 111.667 192.58C111.667 203.779 102.587 212.856 91.3885 212.856Z" fill="#00004E"/>
<path d="M112.224 211.357L105.07 217.06C104.556 217.469 103.809 217.385 103.4 216.871L101.154 214.053C100.745 213.54 100.829 212.792 101.342 212.384L108.496 206.681C109.01 206.272 109.757 206.357 110.166 206.87L112.412 209.688C112.821 210.201 112.737 210.948 112.224 211.357Z" fill="#050505"/>
<path d="M130.888 233.812L127.685 236.837C127.346 237.158 126.881 237.212 126.66 236.955L105.603 213.222C105.391 212.977 105.48 212.539 105.805 212.233L107.078 211.03C107.398 210.727 107.835 210.66 108.07 210.878L131.056 232.788C131.308 233.021 131.231 233.488 130.888 233.812Z" fill="#00004E"/>
<path d="M108.868 192.898C108.868 202.756 100.878 210.749 91.0199 210.749C81.1623 210.749 73.1719 202.756 73.1719 192.898C73.1719 183.043 81.1623 175.051 91.0199 175.051C100.878 175.051 108.868 183.043 108.868 192.898Z" fill="#E11900"/>
<path d="M84.877 185.781L99.1124 200.017" stroke="white" stroke-width="7.93001" stroke-linecap="round" stroke-linejoin="round"/>
<path d="M99.1129 185.781L84.877 200.017" stroke="white" stroke-width="7.93001" stroke-linecap="round" stroke-linejoin="round"/>
</g>
</svg>
