<svg xmlns:xlink="http://www.w3.org/1999/xlink" width="36" height="36" viewBox="0 0 36 36" fill="none" xmlns="http://www.w3.org/2000/svg">
<circle cx="18" cy="18" r="18" fill="#EFC41A"/>
<g clip-path="url(#clip0_5714_34721)">
<path fill-rule="evenodd" clip-rule="evenodd" d="M18.874 8.37402C23.7066 8.37402 27.624 12.2914 27.624 17.124H26.749C26.749 15.0354 25.9193 13.0324 24.4425 11.5556C22.9656 10.0787 20.9626 9.24902 18.874 9.24902V8.37402ZM18.874 10.999C20.4985 10.999 22.0564 11.6443 23.2051 12.793C24.3537 13.9417 24.999 15.4996 24.999 17.124H24.124C24.124 15.7316 23.5709 14.3963 22.5863 13.4117C21.6018 12.4271 20.2664 11.874 18.874 11.874V10.999ZM18.874 13.624C19.8023 13.624 20.6925 13.9928 21.3489 14.6491C22.0053 15.3055 22.374 16.1958 22.374 17.124H21.499C21.499 16.4278 21.2225 15.7602 20.7302 15.2679C20.2379 14.7756 19.5702 14.499 18.874 14.499V13.624Z" fill="white"/>
<path fill-rule="evenodd" clip-rule="evenodd" d="M21.3866 22.5038C20.6866 23.0699 19.7661 22.4469 18.0643 21.0775L14.3411 17.4025C13.5414 16.4243 12.8423 15.3997 13.4714 14.6515L14.6386 13.6409L15.1015 13.2717C15.1805 13.1922 15.243 13.0978 15.2853 12.994C15.3276 12.8902 15.3489 12.7791 15.3479 12.667C15.3469 12.555 15.3237 12.4442 15.2796 12.3412C15.2355 12.2381 15.1714 12.1449 15.091 12.0668L10.7265 7.74865C10.6477 7.66934 10.5539 7.60651 10.4505 7.56382C10.3472 7.52113 10.2364 7.49944 10.1245 7.50001C10.0127 7.50058 9.90213 7.5234 9.79923 7.56714C9.69632 7.61088 9.60314 7.67467 9.52513 7.75478L9.19263 8.14328L8.17763 9.40765C7.39451 10.49 5.92013 15.0164 13.124 22.3052C20.6 29.8687 25.4729 28.5282 26.564 27.6252L28.2055 26.3022C28.3639 26.1406 28.452 25.923 28.4505 25.6968C28.449 25.4706 28.3581 25.2541 28.1976 25.0947L23.8296 20.7757C23.7508 20.6967 23.6571 20.6343 23.5539 20.5919C23.4507 20.5496 23.3401 20.5281 23.2286 20.5288C23.1171 20.5296 23.0068 20.5525 22.9042 20.5962C22.8016 20.6399 22.7087 20.7036 22.6309 20.7835L21.3866 22.5029V22.5038Z" fill="black"/>
</g>
<defs>
<clipPath id="clip0_5714_34721">
<rect width="21" height="21" fill="white" transform="translate(7.5 7.5)"/>
</clipPath>
</defs>
</svg>