<svg width="20" height="20" viewBox="0 0 20 20" fill="none" xmlns="http://www.w3.org/2000/svg">
<path d="M6.37161 2.5H4.07895C3.20692 2.5 2.5 3.20692 2.5 4.07895C2.5 11.4912 8.50881 17.5 15.9211 17.5C16.7931 17.5 17.5 16.7931 17.5 15.9211V13.6284C17.5 12.9469 17.0851 12.334 16.4523 12.0809L14.2559 11.2024C13.6875 10.975 13.0403 11.0776 12.57 11.4695L12.0026 11.9423C11.3404 12.4941 10.3666 12.45 9.7571 11.8404L8.15957 10.2429C7.55004 9.63337 7.50587 8.65963 8.05771 7.99742L8.53053 7.43003C8.92244 6.95974 9.02498 6.31246 8.79763 5.74407L7.91907 3.54768C7.66597 2.91492 7.05312 2.5 6.37161 2.5Z" stroke="#3D3D3D" stroke-width="1.5" stroke-linecap="round" stroke-linejoin="round"/>
</svg>
