<svg xmlns:xlink="http://www.w3.org/1999/xlink" width="286" height="86" viewBox="0 0 286 86" fill="none" xmlns="http://www.w3.org/2000/svg">
<rect x="1.05667" y="1.90994" width="283.187" height="82.42" rx="9.51" fill="black"/>
<path d="M143.994 46.8208C139.023 46.8208 134.972 50.6015 134.972 55.8088C134.972 60.9843 139.023 64.7968 143.994 64.7968C148.967 64.7968 153.018 60.9843 153.018 55.8088C153.016 50.6015 148.965 46.8208 143.994 46.8208ZM143.994 61.2591C141.27 61.2591 138.922 59.0126 138.922 55.8109C138.922 52.5754 141.272 50.3627 143.994 50.3627C146.718 50.3627 149.066 52.5754 149.066 55.8109C149.066 59.0105 146.718 61.2591 143.994 61.2591ZM124.31 46.8208C119.34 46.8208 115.289 50.6015 115.289 55.8088C115.289 60.9843 119.34 64.7968 124.31 64.7968C129.283 64.7968 133.334 60.9843 133.334 55.8088C133.334 50.6015 129.283 46.8208 124.31 46.8208ZM124.31 61.2591C121.586 61.2591 119.238 59.0126 119.238 55.8109C119.238 52.5754 121.588 50.3627 124.31 50.3627C127.035 50.3627 129.382 52.5754 129.382 55.8109C129.385 59.0105 127.035 61.2591 124.31 61.2591ZM100.899 49.5808V53.3932H110.024C109.752 55.5383 109.037 57.1042 107.947 58.1926C106.62 59.5198 104.542 60.9843 100.899 60.9843C95.2817 60.9843 90.8902 56.4554 90.8902 50.8382C90.8902 45.221 95.2817 40.6921 100.899 40.6921C103.929 40.6921 106.142 41.884 107.776 43.4162L110.466 40.7259C108.184 38.5471 105.155 36.8796 100.899 36.8796C93.2043 36.8796 86.7354 43.1436 86.7354 50.8382C86.7354 58.5329 93.2043 64.7968 100.899 64.7968C105.052 64.7968 108.186 63.4337 110.635 60.8808C113.154 58.3617 113.938 54.8197 113.938 51.9604C113.938 51.077 113.871 50.2592 113.733 49.5787H100.899V49.5808ZM196.65 52.5416C195.902 50.5339 193.619 46.8208 188.955 46.8208C184.325 46.8208 180.476 50.4641 180.476 55.8088C180.476 60.847 184.291 64.7968 189.397 64.7968C193.516 64.7968 195.9 62.2777 196.889 60.8131L193.824 58.7695C192.804 60.2679 191.407 61.2548 189.397 61.2548C187.389 61.2548 185.958 60.3355 185.039 58.5307L197.058 53.5602L196.65 52.5416ZM184.392 55.5383C184.291 52.0639 187.083 50.2951 189.093 50.2951C190.659 50.2951 191.986 51.0791 192.429 52.2013L184.392 55.5383ZM174.623 64.2536H178.57V37.8349H174.623V64.2536ZM168.152 48.8305H168.016C167.131 47.7739 165.427 46.8208 163.285 46.8208C158.789 46.8208 154.671 50.7706 154.671 55.8447C154.671 60.8829 158.789 64.7989 163.285 64.7989C165.43 64.7989 167.131 63.8458 168.016 62.7574H168.152V64.0508C168.152 67.4892 166.313 69.3278 163.352 69.3278C160.934 69.3278 159.436 67.5927 158.823 66.1282L155.385 67.5589C156.372 69.9406 158.992 72.8697 163.352 72.8697C167.982 72.8697 171.898 70.1456 171.898 63.5055V47.3681H168.154V48.8305H168.152ZM163.625 61.2591C160.901 61.2591 158.62 58.9767 158.62 55.8447C158.62 52.6768 160.901 50.3627 163.625 50.3627C166.313 50.3627 168.424 52.6768 168.424 55.8447C168.424 58.9767 166.313 61.2591 163.625 61.2591ZM215.15 37.8349H205.701V64.2536H209.643V54.2449H215.148C219.518 54.2449 223.817 51.0812 223.817 46.0409C223.817 41.0006 219.52 37.8349 215.15 37.8349ZM215.251 50.5677H209.643V41.5121H215.251C218.199 41.5121 219.873 43.953 219.873 46.0409C219.873 48.0866 218.199 50.5677 215.251 50.5677ZM239.622 46.7743C236.767 46.7743 233.811 48.0317 232.587 50.8192L236.087 52.2795C236.835 50.8192 238.23 50.3416 239.69 50.3416C241.729 50.3416 243.803 51.5652 243.836 53.7398V54.0124C243.122 53.6046 241.592 52.9938 239.724 52.9938C235.951 52.9938 232.109 55.067 232.109 58.9407C232.109 62.4763 235.203 64.7524 238.669 64.7524C241.319 64.7524 242.782 63.5626 243.699 62.1678H243.834V64.2072H247.642V54.0779C247.645 49.3906 244.141 46.7743 239.622 46.7743ZM239.145 61.2527C237.856 61.2527 236.053 60.606 236.053 59.0084C236.053 56.969 238.297 56.187 240.235 56.187C241.966 56.187 242.784 56.5611 243.836 57.0704C243.53 59.5198 241.423 61.2527 239.145 61.2527ZM261.51 47.3512L256.99 58.8055H256.854L252.163 47.3512H247.915L254.95 63.3597L250.939 72.2653H255.052L265.895 47.3512H261.51ZM225.993 64.2536H229.935V37.8349H225.993V64.2536Z" fill="white"/>
<path d="M100.209 22.5001C100.209 24.271 99.685 25.6806 98.6347 26.7331C97.4428 27.9842 95.8874 28.6097 93.9769 28.6097C92.1468 28.6097 90.5892 27.9757 89.3107 26.7077C88.03 25.4376 87.3896 23.8653 87.3896 21.9886C87.3896 20.1099 88.03 18.5376 89.3107 17.2696C90.5892 15.9995 92.1468 15.3655 93.9769 15.3655C94.8856 15.3655 95.7542 15.543 96.5784 15.8959C97.4047 16.2509 98.0662 16.7222 98.5607 17.3118L97.447 18.4277C96.608 17.4238 95.452 16.923 93.9748 16.923C92.6392 16.923 91.4853 17.3921 90.511 18.3305C89.5368 19.2688 89.0507 20.4882 89.0507 21.9865C89.0507 23.4849 89.5368 24.7043 90.511 25.6426C91.4853 26.5809 92.6392 27.0501 93.9748 27.0501C95.3907 27.0501 96.5721 26.5788 97.5167 25.6341C98.1296 25.0192 98.4846 24.1633 98.5797 23.0664H93.9748V21.5427H100.118C100.182 21.8745 100.209 22.1936 100.209 22.5001Z" fill="white"/>
<path d="M109.952 17.2042H104.178V21.2237H109.385V22.7475H104.178V26.767H109.952V28.3266H102.549V15.6466H109.952V17.2042Z" fill="white"/>
<path d="M116.822 28.3266H115.193V17.2042H111.651V15.6466H120.364V17.2042H116.822V28.3266Z" fill="white"/>
<path d="M126.668 28.3266V15.6466H128.297V28.3266H126.668Z" fill="white"/>
<path d="M135.523 28.3266H133.894V17.2042H130.352V15.6466H139.065V17.2042H135.523V28.3266Z" fill="white"/>
<path d="M155.559 26.6888C154.312 27.9695 152.763 28.6098 150.91 28.6098C149.056 28.6098 147.507 27.9695 146.263 26.6888C145.016 25.4081 144.394 23.84 144.394 21.9866C144.394 20.1332 145.016 18.5651 146.263 17.2845C147.507 16.0038 149.056 15.3613 150.91 15.3613C152.753 15.3613 154.3 16.0059 155.551 17.2929C156.802 18.5799 157.427 20.1438 157.427 21.9866C157.427 23.84 156.804 25.4081 155.559 26.6888ZM147.465 25.6258C148.403 26.5768 149.551 27.0502 150.91 27.0502C152.269 27.0502 153.418 26.5747 154.355 25.6258C155.293 24.6748 155.764 23.4617 155.764 21.9866C155.764 20.5115 155.293 19.2985 154.355 18.3475C153.418 17.3965 152.269 16.9231 150.91 16.9231C149.551 16.9231 148.403 17.3986 147.465 18.3475C146.529 19.2985 146.058 20.5115 146.058 21.9866C146.058 23.4617 146.529 24.6748 147.465 25.6258Z" fill="white"/>
<path d="M159.714 28.3266V15.6466H161.696L167.859 25.5096H167.929L167.859 23.0666V15.6466H169.488V28.3266H167.787L161.339 17.984H161.269L161.339 20.427V28.3266H159.714Z" fill="white"/>
<path d="M100.209 22.5001C100.209 24.271 99.685 25.6806 98.6347 26.7331C97.4428 27.9842 95.8874 28.6097 93.9769 28.6097C92.1468 28.6097 90.5892 27.9757 89.3107 26.7077C88.03 25.4376 87.3896 23.8653 87.3896 21.9886C87.3896 20.1099 88.03 18.5376 89.3107 17.2696C90.5892 15.9995 92.1468 15.3655 93.9769 15.3655C94.8856 15.3655 95.7542 15.543 96.5784 15.8959C97.4047 16.2509 98.0662 16.7222 98.5607 17.3118L97.447 18.4277C96.608 17.4238 95.452 16.923 93.9748 16.923C92.6392 16.923 91.4853 17.3921 90.511 18.3305C89.5368 19.2688 89.0507 20.4882 89.0507 21.9865C89.0507 23.4849 89.5368 24.7043 90.511 25.6426C91.4853 26.5809 92.6392 27.0501 93.9748 27.0501C95.3907 27.0501 96.5721 26.5788 97.5167 25.6341C98.1296 25.0192 98.4846 24.1633 98.5797 23.0664H93.9748V21.5427H100.118C100.182 21.8745 100.209 22.1936 100.209 22.5001Z" stroke="white" stroke-width="0.422667" stroke-miterlimit="10"/>
<path d="M109.952 17.2042H104.178V21.2237H109.385V22.7475H104.178V26.767H109.952V28.3266H102.549V15.6466H109.952V17.2042Z" stroke="white" stroke-width="0.422667" stroke-miterlimit="10"/>
<path d="M116.822 28.3266H115.193V17.2042H111.651V15.6466H120.364V17.2042H116.822V28.3266Z" stroke="white" stroke-width="0.422667" stroke-miterlimit="10"/>
<path d="M126.668 28.3266V15.6466H128.297V28.3266H126.668Z" stroke="white" stroke-width="0.422667" stroke-miterlimit="10"/>
<path d="M135.523 28.3266H133.894V17.2042H130.352V15.6466H139.065V17.2042H135.523V28.3266Z" stroke="white" stroke-width="0.422667" stroke-miterlimit="10"/>
<path d="M155.559 26.6888C154.312 27.9695 152.763 28.6098 150.91 28.6098C149.056 28.6098 147.507 27.9695 146.263 26.6888C145.016 25.4081 144.394 23.84 144.394 21.9866C144.394 20.1332 145.016 18.5651 146.263 17.2845C147.507 16.0038 149.056 15.3613 150.91 15.3613C152.753 15.3613 154.3 16.0059 155.551 17.2929C156.802 18.5799 157.427 20.1438 157.427 21.9866C157.427 23.84 156.804 25.4081 155.559 26.6888ZM147.465 25.6258C148.403 26.5768 149.551 27.0502 150.91 27.0502C152.269 27.0502 153.418 26.5747 154.355 25.6258C155.293 24.6748 155.764 23.4617 155.764 21.9866C155.764 20.5115 155.293 19.2985 154.355 18.3475C153.418 17.3965 152.269 16.9231 150.91 16.9231C149.551 16.9231 148.403 17.3986 147.465 18.3475C146.529 19.2985 146.058 20.5115 146.058 21.9866C146.058 23.4617 146.529 24.6748 147.465 25.6258Z" stroke="white" stroke-width="0.422667" stroke-miterlimit="10"/>
<path d="M159.714 28.3266V15.6466H161.696L167.859 25.5096H167.929L167.859 23.0666V15.6466H169.488V28.3266H167.787L161.339 17.984H161.269L161.339 20.427V28.3266H159.714Z" stroke="white" stroke-width="0.422667" stroke-miterlimit="10"/>
<g filter="url(#filter0_ii_9498_67124)">
<path d="M22.0546 16.7832C21.4397 17.4341 21.0762 18.4443 21.0762 19.7524V66.4909C21.0762 67.8012 21.4397 68.8092 22.0546 69.4601L22.211 69.6123L48.3931 43.4302V43.1217V42.8131L22.211 16.6289L22.0546 16.7832Z" fill="url(#paint0_linear_9498_67124)"/>
<path d="M57.1185 52.1605L48.3926 43.4304V43.1218V42.8133L57.1206 34.0852L57.3172 34.1972L67.6577 40.0723C70.6101 41.7503 70.6101 44.4955 67.6577 46.1756L57.3172 52.0507L57.1185 52.1605Z" fill="url(#paint1_linear_9498_67124)"/>
<g filter="url(#filter1_i_9498_67124)">
<path d="M57.3178 52.0488L48.391 43.1221L22.0547 69.4605C23.0268 70.4919 24.6351 70.6187 26.4462 69.5916L57.3178 52.0488Z" fill="url(#paint2_linear_9498_67124)"/>
</g>
<path d="M57.3178 34.1952L26.4462 16.6546C24.6351 15.6254 23.0268 15.7543 22.0547 16.7856L48.3932 43.1241L57.3178 34.1952Z" fill="url(#paint3_linear_9498_67124)"/>
</g>
<rect x="1.05667" y="1.90994" width="283.187" height="82.42" rx="9.51" stroke="#A6A6A6" stroke-width="2.11333"/>
<defs>
<filter id="filter0_ii_9498_67124" x="21.0762" y="15.9443" width="48.7959" height="54.3567" filterUnits="userSpaceOnUse" color-interpolation-filters="sRGB">
<feFlood flood-opacity="0" result="BackgroundImageFix"/>
<feBlend mode="normal" in="SourceGraphic" in2="BackgroundImageFix" result="shape"/>
<feColorMatrix in="SourceAlpha" type="matrix" values="0 0 0 0 0 0 0 0 0 0 0 0 0 0 0 0 0 0 127 0" result="hardAlpha"/>
<feOffset dy="-0.317"/>
<feComposite in2="hardAlpha" operator="arithmetic" k2="-1" k3="1"/>
<feColorMatrix type="matrix" values="0 0 0 0 0 0 0 0 0 0 0 0 0 0 0 0 0 0 0.12 0"/>
<feBlend mode="normal" in2="shape" result="effect1_innerShadow_9498_67124"/>
<feColorMatrix in="SourceAlpha" type="matrix" values="0 0 0 0 0 0 0 0 0 0 0 0 0 0 0 0 0 0 127 0" result="hardAlpha"/>
<feOffset dy="0.317"/>
<feComposite in2="hardAlpha" operator="arithmetic" k2="-1" k3="1"/>
<feColorMatrix type="matrix" values="0 0 0 0 1 0 0 0 0 1 0 0 0 0 1 0 0 0 0.25 0"/>
<feBlend mode="normal" in2="effect1_innerShadow_9498_67124" result="effect2_innerShadow_9498_67124"/>
</filter>
<filter id="filter1_i_9498_67124" x="22.0547" y="43.1221" width="35.2627" height="27.179" filterUnits="userSpaceOnUse" color-interpolation-filters="sRGB">
<feFlood flood-opacity="0" result="BackgroundImageFix"/>
<feBlend mode="normal" in="SourceGraphic" in2="BackgroundImageFix" result="shape"/>
<feColorMatrix in="SourceAlpha" type="matrix" values="0 0 0 0 0 0 0 0 0 0 0 0 0 0 0 0 0 0 127 0" result="hardAlpha"/>
<feOffset dy="-0.317"/>
<feComposite in2="hardAlpha" operator="arithmetic" k2="-1" k3="1"/>
<feColorMatrix type="matrix" values="0 0 0 0 0 0 0 0 0 0 0 0 0 0 0 0 0 0 0.08 0"/>
<feBlend mode="normal" in2="shape" result="effect1_innerShadow_9498_67124"/>
</filter>
<linearGradient id="paint0_linear_9498_67124" x1="46.0723" y1="19.2579" x2="10.6063" y2="54.7239" gradientUnits="userSpaceOnUse">
<stop stop-color="#00A0FF"/>
<stop offset="0.0066" stop-color="#00A1FF"/>
<stop offset="0.2601" stop-color="#00BEFF"/>
<stop offset="0.5122" stop-color="#00D2FF"/>
<stop offset="0.7604" stop-color="#00DFFF"/>
<stop offset="1" stop-color="#00E3FF"/>
</linearGradient>
<linearGradient id="paint1_linear_9498_67124" x1="71.5008" y1="43.1218" x2="20.3668" y2="43.1218" gradientUnits="userSpaceOnUse">
<stop stop-color="#FFE000"/>
<stop offset="0.4087" stop-color="#FFBD00"/>
<stop offset="0.7754" stop-color="#FFA500"/>
<stop offset="1" stop-color="#FF9C00"/>
</linearGradient>
<linearGradient id="paint2_linear_9498_67124" x1="52.47" y1="47.9698" x2="4.3737" y2="96.0661" gradientUnits="userSpaceOnUse">
<stop stop-color="#FF3A44"/>
<stop offset="1" stop-color="#C31162"/>
</linearGradient>
<linearGradient id="paint3_linear_9498_67124" x1="15.4218" y1="1.22682" x2="36.8981" y2="22.7032" gradientUnits="userSpaceOnUse">
<stop stop-color="#32A071"/>
<stop offset="0.0685" stop-color="#2DA771"/>
<stop offset="0.4762" stop-color="#15CF74"/>
<stop offset="0.8009" stop-color="#06E775"/>
<stop offset="1" stop-color="#00F076"/>
</linearGradient>
</defs>
</svg>