<svg xmlns:xlink="http://www.w3.org/1999/xlink" width="1125" height="200" viewBox="0 0 1125 200" fill="none" xmlns="http://www.w3.org/2000/svg">
<path d="M68.1813 68.5691L62.672 63.0597C61.4453 61.8357 59.9173 61.2237 58.0813 61.2237H50.5053C49.1267 61.2237 47.8253 61.5317 46.604 62.1411L19.7453 74.5384V140.193H58.0813C59.9173 140.193 61.4453 139.584 62.672 138.357L68.1813 132.848C69.4053 131.624 70.0187 130.172 70.0187 128.486V72.9304C70.0187 71.2504 69.4053 69.7957 68.1813 68.5691ZM49.5867 43.3171H61.7533C66.9547 43.3171 71.472 45.1531 75.2973 48.8264L84.4813 58.0104C88.1547 61.8357 89.9907 66.3531 89.9907 71.5544V129.633C89.9907 134.993 88.1547 139.584 84.4813 143.406L75.2973 152.358C71.6267 156.188 67.1093 158.1 61.7533 158.1H19.7453V193.681L14.236 199.421H0V43.3171H17.448L19.5533 54.6544L38.108 45.8384C41.7827 44.1597 45.6053 43.3171 49.5867 43.3171" fill="#EDB31E"/>
<path d="M162.768 43.3176H171.253V61.2243H163.677C161.843 61.2243 160.385 61.6069 159.316 62.3723L133.148 81.6549V158.099H113.175V43.3176H129.703L132.52 60.1576L150.837 46.0909C153.285 44.2429 157.259 43.3176 162.768 43.3176Z" fill="#EDB31E"/>
<path d="M255.734 68.5691L250.225 63.0597C248.997 61.8357 247.47 61.2237 245.632 61.2237H217.626C215.79 61.2237 214.257 61.8357 213.033 63.0597L207.524 68.5691C206.298 69.7957 205.689 71.2504 205.689 72.9304V128.486C205.689 130.172 206.298 131.624 207.524 132.848L213.033 138.357C214.257 139.584 215.79 140.193 217.626 140.193H245.632C247.47 140.193 248.997 139.584 250.225 138.357L255.734 132.848C256.956 131.624 257.57 130.172 257.57 128.486V72.9304C257.57 71.2504 256.956 69.7957 255.734 68.5691ZM213.953 43.3171H249.306C254.506 43.3171 259.022 45.2317 262.85 49.0557L272.032 58.0104C275.705 61.8357 277.544 66.3531 277.544 71.5544V129.862C277.544 135.066 275.705 139.584 272.032 143.406L262.85 152.358C259.022 156.188 254.506 158.1 249.306 158.1H213.953C208.748 158.1 204.232 156.188 200.408 152.358L191.228 143.406C187.553 139.584 185.716 135.066 185.716 129.862V71.5544C185.716 66.3531 187.553 61.8357 191.228 58.0104L200.408 49.0557C204.232 45.2317 208.748 43.3171 213.953 43.3171" fill="#EDB31E"/>
<path d="M301.873 3.3731H324.829V26.3291H301.873V3.3731ZM303.252 43.3171H323.225V171.185C323.225 176.234 321.463 180.746 317.944 184.729L308.532 194.141C304.549 197.814 300.037 199.65 294.988 199.65H283.279V181.744H291.315C292.997 181.744 294.449 181.132 295.676 179.908L301.416 174.168C302.637 172.941 303.252 171.489 303.252 169.806V43.3171Z" fill="#EDB31E"/>
<path d="M414.131 68.5691L408.622 63.0597C407.394 61.8357 405.867 61.2237 404.03 61.2237H379.006C377.171 61.2237 375.639 61.8357 374.416 63.0597L368.907 68.5691C367.528 69.7957 366.84 71.2504 366.84 72.9304V90.6064H416.198V72.9304C416.198 71.2504 415.507 69.7957 414.131 68.5691ZM375.335 43.3171H407.703C412.903 43.3171 417.419 45.2317 421.247 49.0557L430.431 58.0104C434.102 61.8357 435.94 66.3531 435.94 71.5544V102.774L430.199 108.284H366.84V128.486C366.84 130.172 367.528 131.624 368.907 132.848L374.416 138.357C375.639 139.584 377.171 140.193 379.006 140.193H404.03C405.867 140.193 407.394 139.584 408.622 138.357L415.967 131.01L429.28 144.326L421.247 152.358C417.419 156.188 412.903 158.1 407.703 158.1H375.335C369.975 158.1 365.464 156.188 361.79 152.358L352.607 143.406C348.934 139.584 347.098 135.066 347.098 129.862V71.5544C347.098 66.3531 348.934 61.8357 352.607 58.0104L361.79 49.0557C365.464 45.2317 369.975 43.3171 375.335 43.3171" fill="#EDB31E"/>
<path d="M483.226 43.3176H518.58C523.78 43.3176 528.222 45.2323 531.893 49.0549L539.929 57.0909L526.616 70.4069L519.268 63.0603C518.197 61.8363 516.744 61.2243 514.906 61.2243H486.9C485.064 61.2243 483.532 61.8363 482.308 63.0603L476.569 68.5696C475.344 69.7949 474.734 71.2496 474.734 72.9309V128.486C474.734 130.171 475.344 131.624 476.569 132.848L482.308 138.358C483.532 139.583 485.064 140.192 486.9 140.192H514.906C516.744 140.192 518.197 139.583 519.268 138.358L526.844 131.01L540.157 144.326L531.893 152.359C528.222 156.187 523.78 158.099 518.58 158.099H483.226C477.868 158.099 473.356 156.187 469.681 152.359L460.501 143.407C456.828 139.583 454.989 135.067 454.989 129.862V71.5549C454.989 66.3523 456.828 61.8363 460.501 58.0096L469.681 49.0549C473.356 45.2323 477.868 43.3176 483.226 43.3176Z" fill="#EDB31E"/>
<path d="M568.849 16.9186H588.592V43.3172H613.615V61.2239H588.592V128.487C588.592 130.172 589.204 131.624 590.429 132.848L596.168 138.585C597.391 139.66 598.923 140.193 600.76 140.193H613.615V152.591L607.876 158.1H597.087C591.881 158.1 587.365 156.264 583.541 152.591L574.359 143.407C570.687 139.733 568.849 135.221 568.849 129.863V61.2239H551.173V48.8266L556.683 43.3172H568.849V16.9186Z" fill="#EDB31E"/>
<path d="M727.574 15.8754H740.171V158.099H721.277V93.2847H655.449V158.099H636.755V21.9714L642.851 15.8754H655.449V76.0154H721.277V21.9714L727.574 15.8754Z" fill="white"/>
<path d="M797.261 15.8754H851.307L857.401 21.9714V33.1474H801.733C800.108 33.1474 798.751 33.69 797.671 34.77L792.591 39.85C791.504 40.9354 790.964 42.2234 790.964 43.7127V78.2527H846.229V95.7247H790.964V130.265C790.964 131.757 791.504 133.042 792.591 134.125L797.671 139.205C798.751 140.29 800.108 140.83 801.733 140.83H857.401V152.003L851.307 158.099H797.261C792.52 158.099 788.527 156.473 785.275 153.223L777.149 145.095C773.897 141.713 772.271 137.649 772.271 132.905V41.07C772.271 36.3287 773.897 32.2647 777.149 28.878L785.275 20.7514C788.527 17.502 792.52 15.8754 797.261 15.8754Z" fill="white"/>
<path d="M954.112 39.8499L949.032 34.7699C947.949 33.6899 946.594 33.1472 944.97 33.1472H901.897V78.4539H944.97C946.594 78.4539 947.949 77.9139 949.032 76.8272L954.112 71.7512C955.194 70.6672 955.738 69.3806 955.738 67.8886V43.7126C955.738 42.2232 955.194 40.9366 954.112 39.8499ZM889.3 15.8752H949.441C954.178 15.8752 958.176 17.5019 961.428 20.7512L969.553 28.8792C972.94 32.2646 974.633 36.3286 974.633 41.0699V70.7352C974.633 75.3392 972.94 79.3352 969.553 82.7219L961.428 90.8472C960.07 92.2046 958.649 93.1526 957.16 93.6939L953.674 93.9126L980.322 150.177L972.4 158.099H963.617L933.997 95.5206H901.897V158.099H883.204V21.9712L889.3 15.8752Z" fill="white"/>
<path d="M1092.08 76.7017V121.732C1092.08 123.223 1091.47 124.508 1090.26 125.591L1076.64 139.204C1075.56 140.291 1074.2 140.831 1072.57 140.831H1040.36C1038.73 140.831 1037.37 140.334 1036.28 139.336L1022.67 125.726C1021.54 124.639 1020.97 123.346 1020.97 121.851V76.7017H1002.28V124.371C1002.28 129.115 1003.91 133.108 1007.16 136.358L1024.02 153.224C1027.4 156.474 1031.39 158.099 1035.98 158.099H1076.94C1081.54 158.099 1085.52 156.43 1088.91 153.09L1105.77 136.227C1109.11 132.986 1110.78 129.002 1110.78 124.271V76.7017H1092.08Z" fill="white"/>
<path d="M1076.93 51.5464H1115.02V33.1464C1115.02 28.4598 1112.99 23.9598 1109.35 21.0158C1100.16 13.5971 1085.41 6.58512 1076.93 6.32912V51.5464Z" fill="#EDB31E"/>
<path d="M1071.02 2.85037e-05H1059.22V17.4027H1053.31V2.85037e-05H1041.51V51.5467H1071.02V2.85037e-05Z" fill="#EDB31E"/>
<path d="M1120.5 57.4761H1115.02V57.4574H998.142V57.4761H992.56C990.266 57.4761 989.03 58.9081 989.03 61.5667V72.6107C989.03 75.2707 990.266 76.7014 992.56 76.7014H1120.5C1122.8 76.7014 1124.03 75.2707 1124.03 72.6107V61.5667C1124.03 58.9081 1122.8 57.4761 1120.5 57.4761Z" fill="#EDB31E"/>
<path d="M1035.6 51.5464V6.32112C1027.3 6.50245 1015.5 12.9745 1006.29 20.1251C1001.53 23.8144 998.683 27.1318 998.576 33.1464C998.462 39.5198 998.267 45.1651 998.183 51.5464H1035.6Z" fill="#EDB31E"/>
</svg>