<svg width="34" height="34" viewBox="0 0 34 34" fill="none" xmlns="http://www.w3.org/2000/svg">
<path d="M17.0053 4.36328H16.999C10.0303 4.36328 4.3633 10.0318 4.3633 17.0022C4.35897 19.6643 5.20165 22.2587 6.76943 24.4101L5.1943 29.1055L10.0524 27.5525C12.1131 28.9197 14.5324 29.6464 17.0053 29.6411C23.9741 29.6411 29.6411 23.9709 29.6411 17.0022C29.6411 10.0334 23.9741 4.36328 17.0053 4.36328Z" fill="#4CAF50"/>
<path d="M24.3549 22.2076C24.05 23.0686 22.8398 23.7827 21.8745 23.9913C21.2141 24.1319 20.3515 24.244 17.4478 23.0402C13.7335 21.5014 11.3416 17.7271 11.1552 17.4822C10.9766 17.2374 9.6543 15.4837 9.6543 13.67C9.6543 11.8564 10.5754 10.9732 10.9466 10.594C11.2515 10.2828 11.7555 10.1406 12.239 10.1406C12.3954 10.1406 12.536 10.1485 12.6624 10.1548C13.0336 10.1706 13.22 10.1928 13.4649 10.7789C13.7698 11.5135 14.5124 13.3272 14.6008 13.5136C14.6909 13.7001 14.7809 13.9528 14.6546 14.1977C14.5361 14.4505 14.4318 14.5627 14.2454 14.7775C14.059 14.9924 13.882 15.1567 13.6956 15.3873C13.525 15.588 13.3322 15.8028 13.5471 16.1741C13.7619 16.5375 14.5045 17.7492 15.5977 18.7224C17.0086 19.9784 18.1524 20.3797 18.5616 20.5503C18.8665 20.6767 19.2298 20.6467 19.4526 20.4097C19.7354 20.1048 20.0845 19.5993 20.44 19.1016C20.6928 18.7445 21.0119 18.7003 21.3469 18.8267C21.6881 18.9452 23.4939 19.8378 23.8652 20.0227C24.2364 20.2091 24.4813 20.2976 24.5713 20.454C24.6598 20.6104 24.6598 21.345 24.3549 22.2076Z" fill="#FAFAFA"/>
</svg>
