<svg xmlns:xlink="http://www.w3.org/1999/xlink" width="55" height="56" viewBox="0 0 55 56" fill="none" xmlns="http://www.w3.org/2000/svg">
<circle cx="27.4733" cy="27.5866" r="27.4733" fill="#EFC41A"/>
<path d="M34.734 27.2782V36.5952C34.734 36.9039 34.6082 37.1696 34.3594 37.3938L31.5683 40.2105C31.3441 40.435 31.068 40.5468 30.7318 40.5468H24.1298C23.7936 40.5468 23.5147 40.4442 23.2933 40.2375L20.5022 37.4214C20.2698 37.1969 20.155 36.9293 20.155 36.62V27.2782H16.3223V37.1411C16.3223 38.1227 16.6558 38.9492 17.3228 39.6215L20.7783 43.111C21.4726 43.7833 22.29 44.1199 23.2331 44.1199H31.6285C32.5716 44.1199 33.389 43.7742 34.0834 43.0832L37.5388 39.5942C38.2249 38.9238 38.5667 38.0992 38.5667 37.1207V27.2782H34.734Z" fill="black"/>
<path d="M31.626 22.0732H39.439V18.2662C39.439 17.2965 39.0207 16.3654 38.2744 15.7563C36.3909 14.2214 33.3646 12.7706 31.626 12.7176V22.0732Z" fill="white"/>
<path d="M30.415 11.408H27.9956V15.0087H26.7846V11.408H24.3652V22.0732H30.415V11.408Z" fill="white"/>
<path d="M40.5611 23.2998H39.4402V23.2959H15.4736C15.4736 23.2973 15.4736 23.2984 15.4736 23.2998H14.3309C13.8607 23.2998 13.6064 23.5961 13.6064 24.1462V26.4315C13.6064 26.9816 13.8607 27.2776 14.3309 27.2776H40.5611C41.0313 27.2776 41.2855 26.9816 41.2855 26.4315V24.1462C41.2855 23.5961 41.0313 23.2998 40.5611 23.2998Z" fill="white"/>
<path d="M23.1553 22.0732V12.7159C21.4521 12.7534 19.0328 14.0925 17.1438 15.572C16.1705 16.3354 15.5855 17.0217 15.5637 18.2662C15.5391 19.5849 15.5008 20.7529 15.4844 22.0732H23.1553Z" fill="white"/>
</svg>